<svg width="42" height="33" viewBox="0 0 42 33" fill="none" xmlns="http://www.w3.org/2000/svg">
<path d="M7.485 31.89V29.771C7.498 29.593 7.471 29.415 7.41 29.247C7.348 29.08 7.25 28.928 7.124 28.801C7 28.673 6.848 28.574 6.682 28.511C6.515 28.448 6.336 28.418 6.158 28.429C5.925 28.413 5.691 28.461 5.483 28.567C5.274 28.673 5.098 28.833 4.972 29.03C4.857 28.84 4.693 28.682 4.496 28.578C4.299 28.472 4.078 28.421 3.855 28.43C3.661 28.419 3.467 28.461 3.294 28.549C3.121 28.638 2.973 28.77 2.866 28.931V28.516H2.132V31.891H2.873V30.035C2.858 29.919 2.868 29.801 2.902 29.689C2.937 29.579 2.996 29.476 3.075 29.39C3.154 29.305 3.251 29.238 3.358 29.193C3.466 29.149 3.583 29.131 3.699 29.136C4.187 29.136 4.434 29.455 4.434 30.027V31.906H5.175V30.035C5.16 29.919 5.171 29.801 5.206 29.69C5.242 29.58 5.301 29.478 5.379 29.392C5.458 29.307 5.554 29.24 5.662 29.196C5.77 29.152 5.886 29.132 6.002 29.136C6.504 29.136 6.744 29.455 6.744 30.027V31.906L7.485 31.89ZM18.458 28.515H17.25V27.49H16.508V28.515H15.837V29.185H16.522V30.74C16.522 31.523 16.826 31.991 17.694 31.991C18.019 31.991 18.337 31.9 18.612 31.728L18.401 31.1C18.205 31.217 17.981 31.282 17.752 31.289C17.399 31.289 17.265 31.063 17.265 30.725V29.185H18.466L18.458 28.515ZM24.723 28.429C24.544 28.424 24.368 28.468 24.21 28.554C24.054 28.642 23.924 28.769 23.833 28.923V28.515H23.105V31.89H23.84V29.996C23.84 29.438 24.079 29.128 24.545 29.128C24.704 29.127 24.859 29.155 25.005 29.213L25.231 28.507C25.064 28.447 24.887 28.416 24.71 28.416L24.723 28.429ZM15.252 28.782C14.836 28.535 14.358 28.413 13.875 28.428C13.02 28.428 12.462 28.838 12.462 29.509C12.462 30.061 12.871 30.4 13.627 30.504L13.98 30.554C14.383 30.611 14.574 30.717 14.574 30.907C14.574 31.17 14.305 31.317 13.804 31.317C13.4 31.329 13.005 31.206 12.68 30.964L12.327 31.536C12.755 31.834 13.267 31.989 13.789 31.974C14.764 31.974 15.329 31.514 15.329 30.873C15.329 30.229 14.885 29.967 14.149 29.862L13.796 29.812C13.478 29.769 13.224 29.707 13.224 29.48C13.224 29.254 13.465 29.084 13.867 29.084C14.24 29.089 14.604 29.188 14.927 29.374L15.252 28.782ZM34.926 28.429C34.747 28.424 34.571 28.468 34.414 28.554C34.256 28.642 34.126 28.769 34.037 28.923V28.515H33.308V31.89H34.042V29.996C34.042 29.438 34.284 29.128 34.748 29.128C34.906 29.127 35.062 29.155 35.208 29.213L35.434 28.507C35.267 28.447 35.09 28.416 34.913 28.416L34.926 28.429ZM25.463 30.195C25.452 30.432 25.494 30.669 25.582 30.889C25.67 31.109 25.803 31.309 25.972 31.475C26.143 31.641 26.344 31.771 26.566 31.854C26.79 31.937 27.026 31.974 27.263 31.96C27.704 31.982 28.138 31.838 28.479 31.558L28.125 30.964C27.872 31.158 27.562 31.265 27.243 31.268C26.972 31.246 26.717 31.122 26.533 30.922C26.348 30.723 26.246 30.46 26.246 30.188C26.246 29.916 26.349 29.652 26.533 29.453C26.717 29.253 26.971 29.13 27.243 29.106C27.562 29.111 27.872 29.217 28.125 29.41L28.479 28.818C28.138 28.535 27.705 28.392 27.263 28.416C27.026 28.401 26.789 28.437 26.566 28.52C26.344 28.605 26.143 28.733 25.972 28.899C25.803 29.066 25.67 29.265 25.582 29.486C25.494 29.707 25.452 29.943 25.463 30.18V30.195ZM32.341 30.195V28.514H31.607V28.922C31.482 28.763 31.321 28.633 31.137 28.547C30.952 28.462 30.75 28.42 30.547 28.428C30.079 28.428 29.63 28.615 29.299 28.945C28.967 29.277 28.782 29.726 28.782 30.195C28.782 30.663 28.967 31.112 29.299 31.443C29.63 31.774 30.079 31.961 30.547 31.961C30.75 31.969 30.952 31.928 31.137 31.842C31.321 31.756 31.482 31.626 31.607 31.466V31.876H32.341V30.195ZM29.607 30.195C29.619 29.996 29.689 29.804 29.807 29.646C29.926 29.485 30.09 29.364 30.277 29.295C30.464 29.228 30.667 29.214 30.861 29.261C31.054 29.307 31.229 29.407 31.367 29.552C31.505 29.698 31.596 29.877 31.632 30.073C31.666 30.269 31.644 30.471 31.565 30.654C31.487 30.838 31.358 30.995 31.191 31.103C31.025 31.213 30.832 31.273 30.633 31.275C30.493 31.276 30.354 31.249 30.226 31.194C30.096 31.139 29.979 31.059 29.883 30.958C29.787 30.857 29.714 30.736 29.666 30.605C29.618 30.474 29.599 30.334 29.607 30.195ZM20.743 28.429C20.275 28.437 19.828 28.629 19.502 28.964C19.176 29.3 18.996 29.751 19.002 30.22C19.008 30.689 19.201 31.135 19.537 31.46C19.872 31.787 20.325 31.967 20.792 31.961C21.3 31.987 21.8 31.823 22.195 31.502L21.841 30.958C21.562 31.182 21.217 31.306 20.86 31.312C20.616 31.333 20.376 31.258 20.187 31.103C19.999 30.95 19.878 30.726 19.85 30.485H22.358C22.358 30.393 22.358 30.3 22.358 30.202C22.358 29.143 21.701 28.437 20.754 28.437L20.743 28.429ZM20.743 29.086C20.853 29.083 20.962 29.104 21.065 29.143C21.168 29.183 21.261 29.243 21.34 29.32C21.419 29.395 21.484 29.486 21.527 29.587C21.572 29.689 21.595 29.796 21.597 29.906H19.832C19.845 29.679 19.945 29.467 20.113 29.313C20.28 29.16 20.502 29.079 20.728 29.086H20.743ZM39.146 30.201V27.157H38.44V28.923C38.315 28.764 38.154 28.634 37.97 28.548C37.785 28.463 37.583 28.421 37.38 28.429C36.912 28.429 36.463 28.616 36.132 28.946C35.8 29.278 35.614 29.727 35.614 30.196C35.614 30.664 35.8 31.113 36.132 31.444C36.463 31.775 36.912 31.962 37.38 31.962C37.583 31.97 37.785 31.929 37.97 31.843C38.154 31.757 38.315 31.627 38.44 31.467V31.877H39.146V30.201ZM40.372 31.399C40.418 31.398 40.465 31.407 40.506 31.423C40.548 31.439 40.584 31.463 40.615 31.493C40.646 31.524 40.672 31.56 40.69 31.599C40.709 31.64 40.716 31.685 40.716 31.729C40.716 31.776 40.708 31.82 40.69 31.861C40.671 31.9 40.646 31.936 40.615 31.966C40.584 31.996 40.548 32.019 40.506 32.037C40.465 32.056 40.418 32.064 40.372 32.064C40.307 32.064 40.24 32.044 40.184 32.008C40.126 31.972 40.082 31.919 40.054 31.86C40.035 31.819 40.028 31.775 40.028 31.728C40.028 31.684 40.036 31.639 40.054 31.598C40.072 31.559 40.098 31.523 40.128 31.492C40.16 31.462 40.196 31.437 40.238 31.422C40.283 31.404 40.333 31.397 40.382 31.398H40.372V31.399ZM40.372 31.996C40.407 31.996 40.442 31.99 40.475 31.975C40.505 31.961 40.533 31.942 40.556 31.918C40.6 31.87 40.626 31.807 40.626 31.742C40.626 31.676 40.6 31.613 40.556 31.565C40.533 31.541 40.505 31.522 40.475 31.508C40.443 31.493 40.408 31.487 40.372 31.487C40.338 31.487 40.303 31.494 40.269 31.508C40.239 31.521 40.209 31.54 40.184 31.565C40.14 31.613 40.117 31.675 40.117 31.742C40.117 31.806 40.14 31.87 40.184 31.918C40.209 31.943 40.239 31.961 40.269 31.975C40.306 31.991 40.343 31.998 40.382 31.996H40.372ZM40.394 31.576C40.426 31.574 40.459 31.585 40.486 31.603C40.497 31.613 40.506 31.624 40.51 31.636C40.517 31.649 40.52 31.663 40.517 31.678C40.518 31.69 40.517 31.701 40.512 31.711C40.508 31.723 40.501 31.732 40.493 31.741C40.472 31.759 40.446 31.77 40.418 31.773L40.521 31.888H40.439L40.344 31.773H40.312V31.888H40.246V31.578L40.394 31.576ZM40.316 31.636V31.72H40.393C40.407 31.725 40.421 31.725 40.436 31.72C40.438 31.716 40.44 31.71 40.44 31.704C40.44 31.699 40.438 31.694 40.436 31.688C40.438 31.683 40.44 31.678 40.44 31.672C40.44 31.667 40.438 31.662 40.436 31.656C40.421 31.651 40.407 31.651 40.393 31.656L40.316 31.636ZM36.432 30.201C36.444 30.003 36.512 29.812 36.631 29.652C36.75 29.493 36.913 29.371 37.101 29.303C37.289 29.234 37.491 29.222 37.684 29.268C37.877 29.313 38.054 29.414 38.192 29.56C38.329 29.704 38.42 29.884 38.455 30.081C38.49 30.277 38.467 30.478 38.39 30.662C38.312 30.844 38.182 31.001 38.016 31.111C37.85 31.22 37.655 31.28 37.456 31.281C37.317 31.283 37.177 31.257 37.049 31.202C36.92 31.147 36.804 31.067 36.707 30.966C36.611 30.863 36.537 30.743 36.489 30.612C36.441 30.481 36.421 30.342 36.432 30.201ZM11.628 30.201V28.514H10.894V28.922C10.769 28.763 10.608 28.633 10.424 28.547C10.239 28.462 10.038 28.42 9.834 28.428C9.366 28.428 8.917 28.615 8.585 28.945C8.254 29.277 8.068 29.726 8.068 30.195C8.068 30.663 8.254 31.112 8.585 31.443C8.916 31.774 9.365 31.961 9.834 31.961C10.038 31.969 10.239 31.928 10.424 31.842C10.608 31.756 10.769 31.626 10.894 31.466V31.876H11.628V30.201ZM8.895 30.201C8.907 30.003 8.976 29.812 9.095 29.652C9.214 29.493 9.377 29.371 9.564 29.303C9.751 29.234 9.954 29.222 10.147 29.268C10.341 29.313 10.517 29.414 10.655 29.56C10.792 29.704 10.883 29.884 10.918 30.081C10.953 30.277 10.93 30.478 10.853 30.662C10.774 30.844 10.645 31.001 10.478 31.111C10.312 31.22 10.118 31.28 9.919 31.281C9.779 31.284 9.639 31.258 9.509 31.204C9.379 31.15 9.262 31.07 9.165 30.969C9.068 30.866 8.994 30.745 8.946 30.614C8.898 30.481 8.878 30.342 8.887 30.201H8.895Z" fill="black"/>
<path d="M26.132 2.78598H15.008V22.779H26.132V2.78598Z" fill="#FF5F00"/>
<path d="M15.714 12.784C15.712 10.858 16.148 8.95799 16.989 7.22499C17.83 5.49299 19.055 3.97499 20.57 2.78599C18.695 1.31199 16.442 0.394993 14.07 0.140993C11.698 -0.113007 9.303 0.303993 7.157 1.34699C5.011 2.38999 3.202 4.01499 1.937 6.03699C0.672 8.05899 0 10.396 0 12.782C0 15.168 0.672 17.504 1.937 19.527C3.202 21.55 5.011 23.174 7.157 24.216C9.303 25.26 11.699 25.678 14.07 25.423C16.442 25.169 18.695 24.253 20.57 22.778C19.055 21.59 17.832 20.072 16.99 18.34C16.149 16.608 15.712 14.709 15.714 12.784Z" fill="#EB001B"/>
<path d="M41.142 12.784C41.142 15.17 40.471 17.507 39.206 19.53C37.939 21.551 36.13 23.177 33.983 24.219C31.838 25.263 29.441 25.68 27.07 25.425C24.698 25.17 22.446 24.253 20.57 22.779C22.083 21.591 23.308 20.072 24.149 18.34C24.99 16.609 25.428 14.709 25.428 12.783C25.428 10.858 24.99 8.95799 24.149 7.22599C23.308 5.49499 22.083 3.97599 20.57 2.78699C22.446 1.31199 24.698 0.394993 27.07 0.140993C29.441 -0.113007 31.839 0.303993 33.983 1.34699C36.129 2.38999 37.939 4.01499 39.206 6.03699C40.471 8.05899 41.142 10.397 41.142 12.783V12.784Z" fill="#F79E1B"/>
<path d="M39.928 20.659V20.25H40.094V20.165H39.673V20.25H39.854V20.659H39.928ZM40.742 20.659V20.165H40.615L40.467 20.518L40.32 20.165H40.207V20.659H40.3V20.289L40.438 20.609H40.534L40.672 20.289V20.663L40.742 20.659Z" fill="#F79E1B"/>
</svg>
