<svg width="96" height="25" viewBox="0 0 96 25" fill="none" xmlns="http://www.w3.org/2000/svg">
<path d="M17.5699 1.836C16.4429 0.550999 14.404 0 11.797 0H4.22995C3.69695 0 3.24303 0.387001 3.15903 0.914001L0.00900401 20.899C-0.046996 21.253 0.19602 21.586 0.55002 21.641C0.58402 21.646 0.617948 21.649 0.651948 21.649H5.32395L6.49692 14.207L6.45993 14.44C6.54193 13.915 6.99397 13.527 7.52597 13.526H9.74594C14.1069 13.526 17.522 11.755 18.519 6.63C18.548 6.479 18.5739 6.33098 18.5959 6.18698C18.8929 4.29298 18.5949 3.004 17.5699 1.836Z" fill="#003087"/>
<path d="M74.762 11.345C74.476 13.22 73.0441 13.22 71.6591 13.22H70.871L71.424 9.719C71.458 9.507 71.64 9.35199 71.854 9.35199H72.2159C73.1589 9.35199 74.0491 9.35198 74.5081 9.88898C74.7821 10.211 74.865 10.688 74.762 11.345ZM74.158 6.453H68.934C68.577 6.453 68.2719 6.71298 68.2159 7.06598L66.105 20.461C66.067 20.699 66.23 20.922 66.468 20.959C66.49 20.962 66.512 20.964 66.535 20.964H69.2159C69.4659 20.964 69.678 20.782 69.717 20.535L70.317 16.736C70.372 16.384 70.6771 16.123 71.0341 16.123H72.687C76.129 16.123 78.1141 14.458 78.6331 11.158C78.8671 9.71499 78.643 8.58099 77.967 7.78699C77.224 6.91399 75.907 6.452 74.158 6.453Z" fill="#009CDE"/>
<path d="M37.501 11.345C37.216 13.22 35.784 13.22 34.398 13.22H33.61L34.163 9.719C34.197 9.507 34.3781 9.35199 34.5931 9.35199H34.955C35.898 9.35199 36.788 9.35198 37.247 9.88898C37.522 10.211 37.605 10.688 37.501 11.345ZM36.8991 6.453H31.6751C31.3181 6.453 31.013 6.71298 30.958 7.06598L28.8471 20.461C28.8091 20.698 28.971 20.921 29.208 20.959C29.23 20.963 29.253 20.965 29.276 20.965H31.771C32.128 20.965 32.4321 20.705 32.4871 20.352L33.058 16.739C33.113 16.386 33.4181 16.126 33.7741 16.126H35.427C38.868 16.126 40.8541 14.461 41.3731 11.16C41.6071 9.71701 41.3821 8.583 40.7071 7.789C39.9641 6.914 38.6471 6.452 36.8991 6.453ZM49.027 16.154C48.784 17.584 47.651 18.543 46.203 18.543C45.478 18.543 44.896 18.31 44.523 17.868C44.152 17.43 44.014 16.805 44.131 16.111C44.356 14.694 45.509 13.704 46.934 13.704C47.645 13.704 48.2211 13.94 48.6021 14.386C48.9861 14.835 49.137 15.463 49.027 16.154ZM52.513 11.285H50.012C49.797 11.285 49.6141 11.441 49.5811 11.654L49.4721 12.353L49.297 12.1C48.756 11.314 47.5481 11.051 46.3421 11.051C43.5781 11.051 41.2171 13.146 40.7591 16.082C40.5201 17.548 40.8591 18.949 41.6911 19.926C42.4541 20.824 43.543 21.198 44.841 21.198C47.069 21.198 48.304 19.767 48.304 19.767L48.1921 20.462C48.1541 20.699 48.317 20.922 48.554 20.96C48.576 20.963 48.599 20.965 48.622 20.965H50.8741C51.2311 20.965 51.536 20.706 51.591 20.352L52.944 11.789C52.981 11.551 52.8191 11.329 52.5811 11.291C52.5581 11.287 52.535 11.286 52.513 11.285Z" fill="#003087"/>
<path d="M86.287 16.154C86.045 17.584 84.911 18.543 83.464 18.543C82.738 18.543 82.1571 18.31 81.7841 17.868C81.4131 17.43 81.274 16.805 81.391 16.111C81.617 14.694 82.769 13.704 84.195 13.704C84.905 13.704 85.4811 13.94 85.8631 14.386C86.2461 14.835 86.397 15.463 86.287 16.154ZM89.7741 11.285H87.272C87.057 11.285 86.875 11.441 86.841 11.654L86.7321 12.353L86.5571 12.1C86.0151 11.314 84.8081 11.051 83.6021 11.051C80.8391 11.051 78.479 13.146 78.018 16.082C77.78 17.548 78.1201 18.949 78.9511 19.926C79.7141 20.824 80.804 21.198 82.101 21.198C84.33 21.198 85.565 19.767 85.565 19.767L85.454 20.462C85.415 20.699 85.5761 20.921 85.8121 20.96C85.8351 20.964 85.859 20.966 85.882 20.966H88.1331C88.4901 20.966 88.7951 20.707 88.8521 20.353L90.205 11.79C90.242 11.552 90.0791 11.33 89.8421 11.292C89.8191 11.287 89.7951 11.286 89.7741 11.285Z" fill="#009CDE"/>
<path d="M65.837 11.286H63.322C63.082 11.286 62.857 11.405 62.722 11.604L59.2531 16.712L57.783 11.803C57.691 11.496 57.408 11.285 57.087 11.284H54.616C54.375 11.284 54.1801 11.479 54.1801 11.72C54.1801 11.768 54.188 11.815 54.203 11.861L56.9709 19.988L54.3669 23.662C54.2279 23.859 54.2749 24.13 54.4709 24.269C54.5439 24.321 54.632 24.349 54.722 24.349H57.234C57.471 24.349 57.694 24.232 57.83 24.037L66.191 11.969C66.328 11.772 66.28 11.5 66.083 11.363C66.012 11.313 65.926 11.286 65.837 11.286Z" fill="#003087"/>
<path d="M92.7221 6.82098L90.577 20.461C90.54 20.699 90.702 20.922 90.94 20.959C90.961 20.962 90.984 20.964 91.007 20.964H93.162C93.519 20.964 93.823 20.704 93.88 20.351L95.994 6.95499C96.031 6.71799 95.869 6.495 95.632 6.457C95.61 6.454 95.587 6.452 95.564 6.452H93.152C92.938 6.452 92.7541 6.60898 92.7221 6.82098Z" fill="#009CDE"/>
<path d="M17.5699 1.836C16.4429 0.550999 14.404 0 11.797 0H4.22995C3.69695 0 3.24303 0.387001 3.15903 0.914001L0.00900401 20.899C-0.046996 21.253 0.19602 21.586 0.55002 21.641C0.58402 21.646 0.617948 21.649 0.651948 21.649H5.32395L6.49692 14.207L6.45993 14.44C6.54193 13.915 6.99397 13.527 7.52597 13.526H9.74594C14.1069 13.526 17.522 11.755 18.519 6.63C18.548 6.479 18.5739 6.33098 18.5959 6.18698C18.8929 4.29298 18.5949 3.004 17.5699 1.836Z" fill="#003087"/>
<path d="M7.75695 6.21198C7.82995 5.75198 8.22599 5.41299 8.69299 5.41199H14.625C15.328 5.41199 15.983 5.45799 16.582 5.55399C16.909 5.60699 17.233 5.679 17.552 5.771C17.914 5.873 18.264 6.01198 18.597 6.18698C18.894 4.29198 18.596 3.004 17.571 1.836C16.443 0.550999 14.405 0.000976562 11.798 0.000976562H4.22998C3.69798 0.000976562 3.24401 0.388978 3.16101 0.914978L0.0100062 20.898C-0.0459938 21.252 0.196045 21.585 0.550045 21.641C0.584045 21.646 0.617974 21.649 0.651974 21.649H5.32495L6.49804 14.206L7.75695 6.21198Z" fill="#003087"/>
<path d="M18.5959 6.186C18.5729 6.334 18.5469 6.482 18.5179 6.629C17.5199 11.753 14.106 13.525 9.74496 13.525H7.52401C6.99201 13.525 6.53995 13.914 6.45895 14.439L5.32198 21.647L4.99801 23.691C4.94901 24.001 5.16091 24.293 5.47091 24.341C5.50091 24.346 5.53002 24.348 5.56002 24.348H9.49801C9.96401 24.348 10.3599 24.009 10.4339 23.548L10.473 23.347L11.2149 18.643L11.2619 18.383C11.3349 17.923 11.7319 17.584 12.1989 17.584H12.7879C16.6029 17.584 19.59 16.035 20.463 11.552C20.827 9.679 20.638 8.11399 19.675 7.01599C19.369 6.67699 19.0029 6.396 18.5959 6.186Z" fill="#009CDE"/>
<path d="M17.552 5.771C17.4 5.726 17.2421 5.68599 17.0811 5.64999C16.9201 5.61399 16.7521 5.583 16.5811 5.556C15.9811 5.458 15.327 5.41199 14.623 5.41199H8.69104C8.22404 5.41199 7.827 5.75098 7.755 6.21198L6.49402 14.207L6.45801 14.439C6.53901 13.914 6.99195 13.525 7.52295 13.525H9.74402C14.105 13.525 17.52 11.754 18.517 6.629C18.547 6.477 18.572 6.331 18.595 6.186C18.331 6.048 18.057 5.933 17.775 5.84C17.702 5.816 17.628 5.793 17.552 5.771Z" fill="#012169"/>
</svg>
