<svg width="96" height="32" viewBox="0 0 96 32" fill="none" xmlns="http://www.w3.org/2000/svg">
<path d="M47.533 0.553007L41.118 30.785H33.36L39.777 0.553007H47.533ZM80.17 20.074L84.253 8.72201L86.604 20.074H80.17ZM88.824 30.785H96L89.737 0.553007H83.116C81.627 0.553007 80.372 1.42601 79.814 2.77001L68.174 30.785H76.318L77.936 26.268H87.887L88.824 30.785ZM68.578 20.914C68.612 12.936 57.635 12.495 57.71 8.93101C57.733 7.84701 58.758 6.69401 61.001 6.39901C62.111 6.25301 65.176 6.13901 68.648 7.75101L70.011 1.34101C68.143 0.657007 65.742 0.00100708 62.752 0.00100708C55.085 0.00100708 49.689 4.11101 49.646 9.99401C49.594 14.348 53.497 16.775 56.438 18.223C59.459 19.704 60.472 20.655 60.46 21.98C60.438 24.008 58.05 24.904 55.817 24.939C51.917 24.999 49.653 23.876 47.85 23.028L46.446 29.653C48.257 30.493 51.602 31.224 55.072 31.258C63.223 31.258 68.553 27.201 68.578 20.914ZM36.448 0.553007L23.88 30.785H15.681L9.495 6.65801C9.12 5.17201 8.794 4.62701 7.652 4.00201C5.788 2.98101 2.708 2.02501 0 1.42901L0.183 0.553007H13.383C15.065 0.553007 16.579 1.68001 16.96 3.63501L20.227 21.13L28.3 0.553007H36.448Z" fill="url(#paint0_linear)"/>
<defs>
<linearGradient id="paint0_linear" x1="0.0058" y1="15.6349" x2="95.976" y2="15.6349" gradientUnits="userSpaceOnUse">
<stop stop-color="#231E5D"/>
<stop offset="1" stop-color="#074EA2"/>
</linearGradient>
</defs>
</svg>
